<svg width="67" height="74" viewBox="0 0 67 74" fill="none" xmlns="http://www.w3.org/2000/svg">
<path d="M48.0293 30.5044C48.4672 30.0344 48.7056 29.4128 48.6942 28.7706C48.6829 28.1283 48.4227 27.5155 47.9685 27.0613C47.5143 26.6071 46.9015 26.3469 46.2593 26.3356C45.617 26.3243 44.9954 26.5627 44.5255 27.0006L29.75 41.776L23.2383 35.2642C22.7683 34.8263 22.1467 34.5879 21.5045 34.5993C20.8622 34.6106 20.2494 34.8708 19.7952 35.325C19.341 35.7792 19.0808 36.392 19.0695 37.0342C19.0581 37.6765 19.2965 38.2981 19.7345 38.768L27.9981 47.0317C28.463 47.496 29.0931 47.7567 29.75 47.7567C30.407 47.7567 31.0371 47.496 31.5019 47.0317L48.0293 30.5044Z" fill="black"/>
<path fill-rule="evenodd" clip-rule="evenodd" d="M34.8396 0.28228C33.6794 -0.0940934 32.4299 -0.0940934 31.2697 0.28228L3.99962 9.12441C2.83753 9.50139 1.82464 10.2366 1.10614 11.2247C0.387634 12.2128 0.000420328 13.403 0 14.6247V31.2314C0 51.6922 12.4616 66.6164 31.0747 73.6405C32.3506 74.1198 33.7587 74.1198 35.0346 73.6405C53.6444 66.6131 66.1093 51.6922 66.1093 31.2314V14.6247C66.1093 12.1159 64.4897 9.89789 62.1097 9.12441L34.8396 0.28228ZM32.8002 4.99588C32.9656 4.94231 33.1437 4.94231 33.3092 4.99588L60.5793 13.8413C60.745 13.895 60.8895 13.9996 60.9922 14.1403C61.0949 14.281 61.1506 14.4505 61.1511 14.6247V31.2314C61.1511 49.2825 50.3092 62.5771 33.2861 68.9997C33.1368 69.0554 32.9725 69.0554 32.8233 68.9997C15.8001 62.5771 4.9582 49.2792 4.9582 31.2314V14.6247C4.9582 14.2677 5.18628 13.9537 5.53005 13.8413L32.8002 4.99588Z" fill="black"/>
</svg>
