<svg width="102" height="102" viewBox="0 0 102 102" fill="none" xmlns="http://www.w3.org/2000/svg">
<path d="M87.3012 22.5293H64.7719V28.1616H87.3012V87.3012H64.7719V92.9335H92.9335V28.1616C92.9335 26.6678 92.3401 25.2352 91.2839 24.179C90.2276 23.1227 88.795 22.5293 87.3012 22.5293Z" fill="black"/>
<path d="M55.9854 8.44849H17.2349C15.6515 8.44849 14.1329 9.0775 13.0133 10.1971C11.8937 11.3168 11.2646 12.8353 11.2646 14.4188V92.9335H61.9557V14.4188C61.9557 12.8353 61.3267 11.3168 60.207 10.1971C59.0874 9.0775 57.5688 8.44849 55.9854 8.44849ZM56.3233 87.3012H47.8748V78.8527H25.3455V87.3012H16.897V14.4188C16.897 14.3744 16.9057 14.3304 16.9227 14.2894C16.9397 14.2484 16.9646 14.2112 16.996 14.1798C17.0273 14.1484 17.0646 14.1235 17.1056 14.1065C17.1466 14.0896 17.1905 14.0808 17.2349 14.0808H55.9854C56.0298 14.0808 56.0737 14.0896 56.1147 14.1065C56.1557 14.1235 56.193 14.1484 56.2244 14.1798C56.2557 14.2112 56.2806 14.2484 56.2976 14.2894C56.3146 14.3304 56.3233 14.3744 56.3233 14.4188V87.3012Z" fill="black"/>
<path d="M22.5293 22.5293H28.1616V28.1616H22.5293V22.5293Z" fill="black"/>
<path d="M33.7941 22.5293H39.4264V28.1616H33.7941V22.5293Z" fill="black"/>
<path d="M45.0587 22.5293H50.6911V28.1616H45.0587V22.5293Z" fill="black"/>
<path d="M22.5293 36.6102H28.1616V42.2426H22.5293V36.6102Z" fill="black"/>
<path d="M33.7941 36.6102H39.4264V42.2426H33.7941V36.6102Z" fill="black"/>
<path d="M45.0587 36.6102H50.6911V42.2426H45.0587V36.6102Z" fill="black"/>
<path d="M22.5293 50.691H28.1616V56.3234H22.5293V50.691Z" fill="black"/>
<path d="M33.7941 50.691H39.4264V56.3234H33.7941V50.691Z" fill="black"/>
<path d="M45.0587 50.691H50.6911V56.3234H45.0587V50.691Z" fill="black"/>
<path d="M22.5293 64.7719H28.1616V70.4042H22.5293V64.7719Z" fill="black"/>
<path d="M33.7941 64.7719H39.4264V70.4042H33.7941V64.7719Z" fill="black"/>
<path d="M45.0587 64.7719H50.6911V70.4042H45.0587V64.7719Z" fill="black"/>
<path d="M64.7719 36.6102H70.4042V42.2426H64.7719V36.6102Z" fill="black"/>
<path d="M76.0365 36.6102H81.6688V42.2426H76.0365V36.6102Z" fill="black"/>
<path d="M64.7719 50.691H70.4042V56.3234H64.7719V50.691Z" fill="black"/>
<path d="M76.0365 50.691H81.6688V56.3234H76.0365V50.691Z" fill="black"/>
<path d="M64.7719 64.7719H70.4042V70.4042H64.7719V64.7719Z" fill="black"/>
<path d="M76.0365 64.7719H81.6688V70.4042H76.0365V64.7719Z" fill="black"/>
</svg>
