<svg width="79" height="78" viewBox="0 0 79 78" fill="none" xmlns="http://www.w3.org/2000/svg">
<path d="M74.706 28.567C75.5828 26.5726 74.6744 24.2425 72.68 23.3696L21.0422 0.637147C17.1126 -1.09267 12.2746 0.838563 10.5961 4.75238L1.86805 25.1074C0.157974 29.116 2.02207 33.7644 6.02277 35.4705L29.869 45.6914L24.9718 57.9344H7.89871V46.0863H0V61.8838V77.6812H7.89871V65.8331H24.9718C28.2221 65.8331 31.1012 63.8822 32.3018 60.8648L37.1279 48.8035L57.6843 57.6106C58.1898 57.8357 58.719 57.9344 59.2404 57.9344C60.7609 57.9344 62.2063 57.0498 62.858 55.5688L64.0902 52.7647L70.808 55.4503L78.7067 35.7035L72.6405 33.2825L74.706 28.567ZM57.1946 48.8114L9.13486 28.2155L17.855 7.86842L65.8871 29.0133L57.1946 48.8114Z" fill="black"/>
</svg>
