<svg width="40" height="40" viewBox="0 0 40 40" fill="none" xmlns="http://www.w3.org/2000/svg">
<path d="M29.9999 11.75C29.9999 11.308 29.8243 10.884 29.5117 10.5715C29.1992 10.2589 28.7753 10.0833 28.3332 10.0833L14.9999 10C14.5579 10 14.1339 10.1756 13.8214 10.4882C13.5088 10.8007 13.3332 11.2246 13.3332 11.6667C13.3332 12.1087 13.5088 12.5326 13.8214 12.8452C14.1339 13.1577 14.5579 13.3333 14.9999 13.3333H24.2666L10.4832 27.15C10.327 27.3049 10.203 27.4893 10.1184 27.6924C10.0338 27.8955 9.99023 28.1133 9.99023 28.3333C9.99023 28.5534 10.0338 28.7712 10.1184 28.9743C10.203 29.1774 10.327 29.3617 10.4832 29.5167C10.6382 29.6729 10.8225 29.7969 11.0256 29.8815C11.2287 29.9661 11.4465 30.0097 11.6666 30.0097C11.8866 30.0097 12.1044 29.9661 12.3075 29.8815C12.5106 29.7969 12.695 29.6729 12.8499 29.5167L26.6666 15.7V25C26.6666 25.442 26.8422 25.8659 27.1547 26.1785C27.4673 26.4911 27.8912 26.6667 28.3332 26.6667C28.7753 26.6667 29.1992 26.4911 29.5117 26.1785C29.8243 25.8659 29.9999 25.442 29.9999 25V11.75Z" fill="#FCB116"/>
</svg>
