<svg width="141" height="135" viewBox="0 0 141 135" fill="none" xmlns="http://www.w3.org/2000/svg">
<path d="M100.302 74.2166L78.6274 59.6273L73.2524 67.6127C69.4419 73.2737 61.7359 74.7794 56.0748 70.9689C50.4138 67.1584 48.9081 59.4524 52.7186 53.7913L64.39 36.4517L51.3923 35.7837C47.5364 35.5711 43.8477 37.4188 41.6977 40.6129L37.1578 47.3577L21.3158 46.267C18.2894 46.0534 15.6524 48.3395 15.453 51.3755L13.5576 78.8178C13.3439 81.8441 15.6397 84.4669 18.666 84.6806L39.1405 86.0921L58.6191 99.2032C63.6527 102.591 70.4999 101.254 73.888 96.2199L76.1696 97.7556C78.6935 99.4545 82.1052 98.788 83.804 96.264L89.9469 87.1379L91.0876 87.9057C92.9842 89.1823 95.5369 88.6835 96.8135 86.787L101.421 79.9424C102.697 78.0459 102.198 75.4931 100.302 74.2166ZM124.953 83.06L126.848 55.6177C127.062 52.5914 124.766 49.9686 121.74 49.7549L101.265 48.3434L86.6922 38.534C84.9811 37.3823 82.9863 36.7441 80.9272 36.6634L74.1442 36.4283C72.2471 36.3531 70.46 37.2844 69.4042 38.8529L57.2817 56.8627C55.1605 60.0141 55.9949 64.2846 59.1462 66.4058C62.2976 68.527 66.5681 67.6926 68.6893 64.5413L77.1357 51.9929L103.373 69.6535C107.78 72.6193 108.95 78.6076 105.984 83.0138L103.248 87.0778L119.09 88.1684C122.126 88.3679 124.739 86.0864 124.953 83.06Z" fill="#FCB116"/>
</svg>
