<svg width="98" height="123" viewBox="0 0 98 123" fill="none" xmlns="http://www.w3.org/2000/svg">
<path d="M48.8372 12.2093C58.8976 12.2093 67.1511 20.4628 67.1511 30.5232V48.8372H30.5232V30.5232C30.5232 20.4628 38.7767 12.2093 48.8372 12.2093ZM79.3604 48.8372V30.5232C79.3604 13.7232 65.6371 0 48.8372 0C32.0372 0 18.3139 13.7232 18.3139 30.5232V48.8372H12.2093C8.97118 48.8372 5.8657 50.1235 3.57602 52.4132C1.28633 54.7029 0 57.8083 0 61.0464V109.884C0 113.122 1.28633 116.227 3.57602 118.517C5.8657 120.807 8.97118 122.093 12.2093 122.093H85.465C88.7031 122.093 91.8086 120.807 94.0983 118.517C96.388 116.227 97.6743 113.122 97.6743 109.884V61.0464C97.6743 57.8083 96.388 54.7029 94.0983 52.4132C91.8086 50.1235 88.7031 48.8372 85.465 48.8372H79.3604ZM12.2093 61.0464H85.465V109.884H12.2093V61.0464Z" fill="#FCB116"/>
</svg>
