<svg width="932" height="699" viewBox="0 0 932 699" fill="none" xmlns="http://www.w3.org/2000/svg">
<g clip-path="url(#clip0_2_4)">
<path d="M460.148 108.301C460.148 108.301 492.211 141.111 571.249 143.348C637.585 145.224 661.473 128.434 661.473 128.434C661.473 128.434 721.87 302.17 622.699 446.826C570.622 522.787 470.637 572.076 460.148 574.186C449.658 572.077 349.673 522.788 297.596 446.826C198.425 302.17 258.823 128.434 258.823 128.434C258.823 128.434 282.71 145.224 349.046 143.348C428.085 141.111 460.148 108.301 460.148 108.301Z" fill="#2A3782" stroke="#FCB116" stroke-width="145" stroke-miterlimit="10"/>
<path d="M459.235 78.4693C462.678 78.4693 465.469 75.6779 465.469 72.2346C465.469 68.7913 462.678 66 459.235 66C455.791 66 453 68.7913 453 72.2346C453 75.6779 455.791 78.4693 459.235 78.4693Z" fill="#FDFEFE"/>
<path d="M458.974 70.4397L453 91.663H465.311L458.974 70.4397Z" fill="#FDFEFE"/>
<path d="M375.733 357.153C388.493 357.153 398.838 346.808 398.838 334.047C398.838 321.287 388.493 310.942 375.733 310.942C362.972 310.942 352.627 321.287 352.627 334.047C352.627 346.808 362.972 357.153 375.733 357.153Z" fill="#FDFEFE"/>
<path d="M544.405 357.153C557.166 357.153 567.511 346.808 567.511 334.047C567.511 321.287 557.166 310.942 544.405 310.942C531.644 310.942 521.3 321.287 521.3 334.047C521.3 346.808 531.644 357.153 544.405 357.153Z" fill="#FDFEFE"/>
<path d="M535.161 278.44L523.807 274.818C482.206 261.548 437.933 261.548 396.333 274.818L384.978 278.44C382.411 279.259 380.452 281.505 379.881 284.324C377.609 295.539 369.243 338.336 342.14 354.622C338.972 356.525 337.506 360.578 338.733 364.258C348.031 392.163 388.06 499.642 460.069 523.798C532.078 499.642 572.107 392.163 581.405 364.258C582.632 360.578 581.166 356.526 577.998 354.622C550.895 338.336 542.529 295.539 540.258 284.324C539.687 281.505 537.727 279.259 535.161 278.44Z" fill="#FCB116"/>
<path d="M460.32 523.709V264.872C438.768 264.846 417.213 268.158 396.331 274.818L384.976 278.44C382.409 279.259 380.45 281.505 379.878 284.325C377.607 295.539 369.241 338.336 342.138 354.623C338.97 356.526 337.505 360.578 338.731 364.258C348.029 392.163 388.058 499.642 460.067 523.798C460.153 523.769 460.236 523.736 460.32 523.709Z" fill="#F58220"/>
<path d="M516.735 301.925C502.177 310.044 478.808 317.153 474.087 318.549C473.54 318.71 473.089 319.085 472.827 319.591L461.93 340.56C461.147 342.066 458.991 342.066 458.208 340.56L447.311 319.591C447.048 319.085 446.597 318.71 446.05 318.549C441.329 317.153 417.96 310.044 403.402 301.925C402.108 301.202 400.503 301.986 400.301 303.455C398.622 315.694 390.819 360.682 364.886 380.215C363.617 381.171 363.784 383.116 365.224 383.789C377.314 389.446 418.622 411.879 431.697 459.383C431.947 460.293 432.765 460.932 433.708 460.932H454.292H465.844H486.428C487.372 460.932 488.19 460.293 488.44 459.383C501.514 411.879 542.823 389.446 554.913 383.789C556.353 383.116 556.521 381.17 555.251 380.215C529.318 360.681 521.514 315.693 519.836 303.455C519.634 301.986 518.029 301.203 516.735 301.925Z" fill="#FDFEFE"/>
<path d="M477.577 413.703C481.497 413.133 483.093 408.209 480.134 405.575C475.125 401.118 466.601 397.564 454.211 399.934C448.339 401.057 444.098 403.741 441.171 406.442C438.199 409.182 439.796 414.139 443.81 414.617L452.549 415.658C454.287 415.864 455.769 417.017 456.398 418.651L459.247 426.056C459.881 427.703 462.218 427.682 462.824 426.025L465.784 417.92C466.38 416.289 467.822 415.116 469.541 414.868L477.577 413.703Z" fill="black"/>
<path d="M445.945 380.243L439.883 365.079C438.631 361.946 435.822 359.703 432.49 359.176L407.117 355.159C404.852 354.8 403.815 357.878 405.836 358.962L415.109 363.935C415.109 363.935 417.989 380.93 436.135 375.169L442.535 382.353C444.052 384.055 446.791 382.36 445.945 380.243Z" fill="black"/>
<path d="M475.319 380.243L481.381 365.079C482.633 361.946 485.441 359.703 488.774 359.176L514.148 355.159C516.412 354.8 517.449 357.878 515.428 358.962L506.155 363.935C506.155 363.935 503.275 380.93 485.128 375.169L478.728 382.353C477.212 384.055 474.473 382.36 475.319 380.243Z" fill="black"/>
<path d="M463.057 437.117C461.861 435.035 458.953 434.85 457.573 436.814C453.106 443.172 443.996 454.224 431.697 459.383C431.947 460.293 432.765 460.932 433.708 460.932H454.292H465.844H486.428C487.372 460.932 488.19 460.293 488.44 459.383C488.441 459.383 471.341 451.54 463.057 437.117Z" fill="black"/>
<path d="M281.972 124.131C281.835 122.756 281.25 121.687 280.216 120.926C279.182 120.165 277.778 119.784 276.006 119.784C274.801 119.784 273.784 119.955 272.955 120.295C272.125 120.625 271.489 121.085 271.045 121.676C270.614 122.267 270.398 122.938 270.398 123.688C270.375 124.312 270.506 124.858 270.79 125.324C271.085 125.79 271.489 126.193 272 126.534C272.511 126.864 273.102 127.153 273.773 127.403C274.443 127.642 275.159 127.847 275.92 128.017L279.057 128.767C280.58 129.108 281.977 129.562 283.25 130.131C284.523 130.699 285.625 131.398 286.557 132.227C287.489 133.057 288.21 134.034 288.722 135.159C289.244 136.284 289.511 137.574 289.523 139.028C289.511 141.165 288.966 143.017 287.886 144.585C286.818 146.142 285.273 147.352 283.25 148.216C281.239 149.068 278.813 149.494 275.972 149.494C273.153 149.494 270.699 149.062 268.608 148.199C266.528 147.335 264.903 146.057 263.733 144.364C262.574 142.659 261.966 140.551 261.909 138.04H269.051C269.131 139.21 269.466 140.187 270.057 140.972C270.659 141.744 271.46 142.33 272.46 142.727C273.472 143.114 274.614 143.307 275.886 143.307C277.136 143.307 278.222 143.125 279.142 142.761C280.074 142.398 280.795 141.892 281.307 141.244C281.818 140.597 282.074 139.852 282.074 139.011C282.074 138.227 281.841 137.568 281.375 137.034C280.92 136.5 280.25 136.045 279.364 135.67C278.489 135.295 277.415 134.955 276.142 134.648L272.341 133.693C269.398 132.977 267.074 131.858 265.369 130.335C263.665 128.812 262.818 126.761 262.83 124.182C262.818 122.068 263.381 120.222 264.517 118.642C265.665 117.062 267.239 115.83 269.239 114.943C271.239 114.057 273.511 113.614 276.057 113.614C278.648 113.614 280.909 114.057 282.841 114.943C284.784 115.83 286.295 117.062 287.375 118.642C288.455 120.222 289.011 122.051 289.045 124.131H281.972ZM301.868 114.091V149H294.487V114.091H301.868ZM307.94 114.091H317.043L326.656 137.545H327.065L336.679 114.091H345.781V149H338.622V126.278H338.332L329.298 148.83H324.423L315.389 126.193H315.099V149H307.94V114.091ZM351.862 149V114.091H375.385V120.176H359.243V128.494H374.175V134.58H359.243V142.915H375.453V149H351.862ZM393.628 149H381.253V114.091H393.73C397.241 114.091 400.264 114.79 402.798 116.188C405.332 117.574 407.281 119.568 408.645 122.17C410.02 124.773 410.707 127.886 410.707 131.511C410.707 135.148 410.02 138.273 408.645 140.886C407.281 143.5 405.321 145.506 402.764 146.903C400.219 148.301 397.173 149 393.628 149ZM388.634 142.676H393.321C395.503 142.676 397.338 142.29 398.827 141.517C400.327 140.733 401.452 139.523 402.202 137.886C402.963 136.239 403.344 134.114 403.344 131.511C403.344 128.932 402.963 126.824 402.202 125.188C401.452 123.551 400.332 122.347 398.844 121.574C397.355 120.801 395.52 120.415 393.338 120.415H388.634V142.676ZM423.555 114.091V149H416.175V114.091H423.555ZM435.645 149H427.736L439.787 114.091H449.298L461.332 149H453.423L444.679 122.068H444.406L435.645 149ZM435.151 135.278H453.832V141.04H435.151V135.278ZM499.791 125.375C499.553 124.545 499.217 123.812 498.786 123.176C498.354 122.528 497.825 121.983 497.2 121.54C496.587 121.085 495.882 120.739 495.087 120.5C494.303 120.261 493.433 120.142 492.479 120.142C490.695 120.142 489.126 120.585 487.774 121.472C486.433 122.358 485.388 123.648 484.638 125.341C483.888 127.023 483.513 129.08 483.513 131.511C483.513 133.943 483.882 136.011 484.621 137.716C485.359 139.42 486.405 140.722 487.757 141.619C489.109 142.506 490.706 142.949 492.547 142.949C494.217 142.949 495.643 142.653 496.825 142.062C498.018 141.46 498.928 140.614 499.553 139.523C500.189 138.432 500.507 137.142 500.507 135.653L502.007 135.875H493.007V130.318H507.615V134.716C507.615 137.784 506.967 140.42 505.672 142.625C504.376 144.818 502.592 146.511 500.32 147.705C498.047 148.886 495.445 149.477 492.513 149.477C489.24 149.477 486.365 148.756 483.888 147.312C481.411 145.858 479.479 143.795 478.092 141.125C476.717 138.443 476.03 135.261 476.03 131.58C476.03 128.75 476.439 126.227 477.257 124.011C478.087 121.784 479.246 119.898 480.734 118.352C482.223 116.807 483.956 115.631 485.933 114.824C487.911 114.017 490.053 113.614 492.359 113.614C494.337 113.614 496.178 113.903 497.882 114.483C499.587 115.051 501.098 115.858 502.416 116.903C503.746 117.949 504.831 119.193 505.672 120.636C506.513 122.068 507.053 123.648 507.291 125.375H499.791ZM513.159 149V114.091H526.932C529.568 114.091 531.818 114.562 533.682 115.506C535.557 116.437 536.983 117.761 537.96 119.477C538.949 121.182 539.443 123.187 539.443 125.494C539.443 127.812 538.943 129.807 537.943 131.477C536.943 133.136 535.494 134.409 533.597 135.295C531.71 136.182 529.426 136.625 526.744 136.625H517.523V130.693H525.551C526.96 130.693 528.131 130.5 529.062 130.114C529.994 129.727 530.688 129.148 531.142 128.375C531.608 127.602 531.841 126.642 531.841 125.494C531.841 124.335 531.608 123.358 531.142 122.562C530.688 121.767 529.989 121.165 529.045 120.756C528.114 120.335 526.938 120.125 525.517 120.125H520.54V149H513.159ZM532.011 133.114L540.688 149H532.54L524.051 133.114H532.011ZM576.739 131.545C576.739 135.352 576.017 138.591 574.574 141.261C573.142 143.932 571.188 145.972 568.71 147.381C566.244 148.778 563.472 149.477 560.392 149.477C557.29 149.477 554.506 148.773 552.04 147.364C549.574 145.955 547.625 143.915 546.193 141.244C544.761 138.574 544.045 135.341 544.045 131.545C544.045 127.739 544.761 124.5 546.193 121.83C547.625 119.159 549.574 117.125 552.04 115.727C554.506 114.318 557.29 113.614 560.392 113.614C563.472 113.614 566.244 114.318 568.71 115.727C571.188 117.125 573.142 119.159 574.574 121.83C576.017 124.5 576.739 127.739 576.739 131.545ZM569.256 131.545C569.256 129.08 568.886 127 568.148 125.307C567.42 123.614 566.392 122.33 565.062 121.455C563.733 120.58 562.176 120.142 560.392 120.142C558.608 120.142 557.051 120.58 555.722 121.455C554.392 122.33 553.358 123.614 552.619 125.307C551.892 127 551.528 129.08 551.528 131.545C551.528 134.011 551.892 136.091 552.619 137.784C553.358 139.477 554.392 140.761 555.722 141.636C557.051 142.511 558.608 142.949 560.392 142.949C562.176 142.949 563.733 142.511 565.062 141.636C566.392 140.761 567.42 139.477 568.148 137.784C568.886 136.091 569.256 134.011 569.256 131.545ZM603.768 114.091H611.149V136.761C611.149 139.307 610.541 141.534 609.325 143.443C608.121 145.352 606.433 146.841 604.263 147.909C602.092 148.966 599.564 149.494 596.678 149.494C593.78 149.494 591.246 148.966 589.075 147.909C586.905 146.841 585.217 145.352 584.013 143.443C582.808 141.534 582.206 139.307 582.206 136.761V114.091H589.587V136.131C589.587 137.46 589.876 138.642 590.456 139.676C591.047 140.71 591.876 141.523 592.945 142.114C594.013 142.705 595.257 143 596.678 143C598.109 143 599.354 142.705 600.411 142.114C601.479 141.523 602.303 140.71 602.882 139.676C603.473 138.642 603.768 137.46 603.768 136.131V114.091ZM617.222 149V114.091H630.994C633.642 114.091 635.898 114.597 637.761 115.608C639.625 116.608 641.045 118 642.023 119.784C643.011 121.557 643.506 123.602 643.506 125.92C643.506 128.239 643.006 130.284 642.006 132.057C641.006 133.83 639.557 135.21 637.659 136.199C635.773 137.187 633.489 137.682 630.807 137.682H622.028V131.767H629.614C631.034 131.767 632.205 131.523 633.125 131.034C634.057 130.534 634.75 129.847 635.205 128.972C635.67 128.085 635.903 127.068 635.903 125.92C635.903 124.761 635.67 123.75 635.205 122.886C634.75 122.011 634.057 121.335 633.125 120.858C632.193 120.369 631.011 120.125 629.58 120.125H624.602V149H617.222Z" fill="#FDFEFE"/>
<path d="M340.914 170.594C340.819 169.754 340.429 169.103 339.742 168.641C339.056 168.174 338.192 167.94 337.15 167.94C336.404 167.94 335.759 168.058 335.214 168.295C334.67 168.526 334.247 168.846 333.945 169.254C333.649 169.656 333.501 170.115 333.501 170.63C333.501 171.062 333.602 171.435 333.803 171.749C334.01 172.062 334.279 172.326 334.611 172.539C334.948 172.746 335.309 172.92 335.694 173.062C336.079 173.199 336.449 173.311 336.804 173.4L338.579 173.862C339.159 174.004 339.754 174.196 340.364 174.439C340.973 174.681 341.538 175.001 342.059 175.397C342.58 175.794 343 176.285 343.32 176.871C343.645 177.457 343.808 178.158 343.808 178.975C343.808 180.005 343.542 180.919 343.009 181.718C342.482 182.517 341.716 183.148 340.71 183.609C339.71 184.071 338.499 184.302 337.079 184.302C335.718 184.302 334.54 184.086 333.545 183.654C332.551 183.222 331.773 182.609 331.211 181.816C330.648 181.017 330.338 180.07 330.278 178.975H333.031C333.084 179.632 333.297 180.18 333.67 180.618C334.049 181.05 334.531 181.372 335.117 181.585C335.709 181.792 336.357 181.896 337.061 181.896C337.836 181.896 338.526 181.775 339.13 181.532C339.739 181.283 340.219 180.94 340.568 180.502C340.917 180.058 341.092 179.54 341.092 178.949C341.092 178.41 340.938 177.969 340.63 177.626C340.328 177.282 339.917 176.998 339.396 176.773C338.881 176.549 338.298 176.35 337.647 176.179L335.499 175.593C334.043 175.196 332.888 174.613 332.036 173.844C331.19 173.074 330.767 172.056 330.767 170.79C330.767 169.742 331.051 168.828 331.619 168.047C332.187 167.265 332.957 166.659 333.927 166.227C334.898 165.789 335.993 165.57 337.212 165.57C338.443 165.57 339.529 165.786 340.47 166.218C341.417 166.65 342.163 167.245 342.707 168.002C343.252 168.754 343.536 169.618 343.56 170.594H340.914ZM347.086 184V165.818H358.486V168.18H349.83V173.719H357.891V176.072H349.83V181.638H358.592V184H347.086ZM377.251 171.731H374.481C374.375 171.139 374.176 170.618 373.886 170.168C373.596 169.719 373.241 169.337 372.821 169.023C372.401 168.709 371.93 168.473 371.409 168.313C370.895 168.153 370.347 168.073 369.767 168.073C368.719 168.073 367.781 168.337 366.953 168.863C366.13 169.39 365.479 170.162 365 171.18C364.526 172.198 364.289 173.441 364.289 174.909C364.289 176.389 364.526 177.638 365 178.656C365.479 179.674 366.133 180.443 366.962 180.964C367.79 181.485 368.722 181.745 369.758 181.745C370.332 181.745 370.877 181.668 371.392 181.514C371.913 181.354 372.383 181.121 372.803 180.813C373.223 180.505 373.579 180.129 373.869 179.685C374.165 179.236 374.369 178.721 374.481 178.141L377.251 178.15C377.103 179.043 376.816 179.866 376.39 180.618C375.97 181.363 375.428 182.008 374.765 182.553C374.108 183.092 373.357 183.509 372.51 183.805C371.664 184.101 370.741 184.249 369.74 184.249C368.166 184.249 366.763 183.876 365.532 183.13C364.301 182.378 363.331 181.304 362.62 179.907C361.916 178.511 361.564 176.844 361.564 174.909C361.564 172.968 361.919 171.302 362.629 169.911C363.339 168.514 364.31 167.443 365.541 166.697C366.772 165.945 368.172 165.57 369.74 165.57C370.705 165.57 371.605 165.709 372.439 165.987C373.28 166.259 374.034 166.662 374.703 167.194C375.372 167.721 375.925 168.366 376.363 169.13C376.801 169.887 377.097 170.754 377.251 171.731ZM392.226 165.818H394.978V177.777C394.978 179.049 394.679 180.177 394.081 181.159C393.483 182.136 392.643 182.905 391.56 183.467C390.477 184.024 389.207 184.302 387.751 184.302C386.301 184.302 385.035 184.024 383.952 183.467C382.869 182.905 382.028 182.136 381.43 181.159C380.833 180.177 380.534 179.049 380.534 177.777V165.818H383.277V177.555C383.277 178.377 383.457 179.108 383.818 179.748C384.185 180.387 384.703 180.89 385.372 181.257C386.041 181.618 386.834 181.798 387.751 181.798C388.675 181.798 389.471 181.618 390.139 181.257C390.814 180.89 391.329 180.387 391.684 179.748C392.045 179.108 392.226 178.377 392.226 177.555V165.818ZM398.966 184V165.818H405.447C406.856 165.818 408.025 166.061 408.954 166.546C409.889 167.031 410.587 167.703 411.049 168.561C411.511 169.414 411.741 170.399 411.741 171.518C411.741 172.63 411.508 173.61 411.04 174.456C410.578 175.297 409.88 175.951 408.945 176.418C408.016 176.886 406.847 177.12 405.438 177.12H400.529V174.758H405.19C406.077 174.758 406.799 174.631 407.356 174.376C407.918 174.122 408.329 173.752 408.59 173.267C408.85 172.781 408.98 172.198 408.98 171.518C408.98 170.831 408.847 170.236 408.581 169.733C408.321 169.23 407.909 168.846 407.347 168.579C406.791 168.307 406.06 168.171 405.154 168.171H401.71V184H398.966ZM407.942 175.797L412.434 184H409.309L404.906 175.797H407.942ZM417.823 165.818V184H415.08V165.818H417.823ZM420.921 168.18V165.818H434.993V168.18H429.32V184H426.585V168.18H420.921ZM436.699 165.818H439.815L444.565 174.083H444.76L449.51 165.818H452.626L446.03 176.862V184H443.296V176.862L436.699 165.818ZM471.749 170.594C471.654 169.754 471.264 169.103 470.577 168.641C469.891 168.174 469.026 167.94 467.985 167.94C467.239 167.94 466.594 168.058 466.049 168.295C465.505 168.526 465.082 168.846 464.78 169.254C464.484 169.656 464.336 170.115 464.336 170.63C464.336 171.062 464.437 171.435 464.638 171.749C464.845 172.062 465.114 172.326 465.446 172.539C465.783 172.746 466.144 172.92 466.529 173.062C466.914 173.199 467.283 173.311 467.639 173.4L469.414 173.862C469.994 174.004 470.589 174.196 471.199 174.439C471.808 174.681 472.373 175.001 472.894 175.397C473.415 175.794 473.835 176.285 474.155 176.871C474.48 177.457 474.643 178.158 474.643 178.975C474.643 180.005 474.377 180.919 473.844 181.718C473.317 182.517 472.551 183.148 471.545 183.609C470.545 184.071 469.334 184.302 467.914 184.302C466.553 184.302 465.375 184.086 464.38 183.654C463.386 183.222 462.608 182.609 462.046 181.816C461.483 181.017 461.173 180.07 461.113 178.975H463.866C463.919 179.632 464.132 180.18 464.505 180.618C464.883 181.05 465.366 181.372 465.952 181.585C466.544 181.792 467.192 181.896 467.896 181.896C468.671 181.896 469.361 181.775 469.965 181.532C470.574 181.283 471.054 180.94 471.403 180.502C471.752 180.058 471.927 179.54 471.927 178.949C471.927 178.41 471.773 177.969 471.465 177.626C471.163 177.282 470.752 176.998 470.231 176.773C469.716 176.549 469.133 176.35 468.482 176.179L466.334 175.593C464.878 175.196 463.723 174.613 462.871 173.844C462.025 173.074 461.602 172.056 461.602 170.79C461.602 169.742 461.886 168.828 462.454 168.047C463.022 167.265 463.792 166.659 464.762 166.227C465.733 165.789 466.828 165.57 468.047 165.57C469.278 165.57 470.364 165.786 471.305 166.218C472.252 166.65 472.998 167.245 473.542 168.002C474.087 168.754 474.371 169.618 474.395 170.594H471.749ZM477.921 184V165.818H489.32V168.18H480.665V173.719H488.726V176.072H480.665V181.638H489.427V184H477.921ZM492.985 184V165.818H499.466C500.874 165.818 502.043 166.061 502.972 166.546C503.908 167.031 504.606 167.703 505.068 168.561C505.529 169.414 505.76 170.399 505.76 171.518C505.76 172.63 505.526 173.61 505.059 174.456C504.597 175.297 503.899 175.951 502.964 176.418C502.034 176.886 500.865 177.12 499.457 177.12H494.547V174.758H499.208C500.096 174.758 500.818 174.631 501.374 174.376C501.937 174.122 502.348 173.752 502.608 173.267C502.869 172.781 502.999 172.198 502.999 171.518C502.999 170.831 502.866 170.236 502.6 169.733C502.339 169.23 501.928 168.846 501.366 168.579C500.809 168.307 500.078 168.171 499.173 168.171H495.728V184H492.985ZM501.96 175.797L506.453 184H503.328L498.924 175.797H501.96ZM510.248 165.818L515.308 180.626H515.512L520.573 165.818H523.538L516.995 184H513.826L507.283 165.818H510.248ZM528.907 165.818V184H526.164V165.818H528.907ZM548.003 171.731H545.233C545.127 171.139 544.928 170.618 544.638 170.168C544.348 169.719 543.993 169.337 543.573 169.023C543.153 168.709 542.682 168.473 542.161 168.313C541.646 168.153 541.099 168.073 540.519 168.073C539.471 168.073 538.533 168.337 537.705 168.863C536.882 169.39 536.231 170.162 535.752 171.18C535.278 172.198 535.041 173.441 535.041 174.909C535.041 176.389 535.278 177.638 535.752 178.656C536.231 179.674 536.885 180.443 537.714 180.964C538.542 181.485 539.474 181.745 540.51 181.745C541.084 181.745 541.629 181.668 542.144 181.514C542.664 181.354 543.135 181.121 543.555 180.813C543.975 180.505 544.331 180.129 544.621 179.685C544.916 179.236 545.121 178.721 545.233 178.141L548.003 178.15C547.855 179.043 547.568 179.866 547.142 180.618C546.722 181.363 546.18 182.008 545.517 182.553C544.86 183.092 544.109 183.509 543.262 183.805C542.416 184.101 541.493 184.249 540.492 184.249C538.918 184.249 537.515 183.876 536.284 183.13C535.053 182.378 534.083 181.304 533.372 179.907C532.668 178.511 532.316 176.844 532.316 174.909C532.316 172.968 532.671 171.302 533.381 169.911C534.091 168.514 535.062 167.443 536.293 166.697C537.524 165.945 538.924 165.57 540.492 165.57C541.457 165.57 542.357 165.709 543.191 165.987C544.032 166.259 544.786 166.662 545.455 167.194C546.124 167.721 546.677 168.366 547.115 169.13C547.553 169.887 547.849 170.754 548.003 171.731ZM551.286 184V165.818H562.685V168.18H554.029V173.719H562.09V176.072H554.029V181.638H562.791V184H551.286ZM576.266 170.594C576.171 169.754 575.78 169.103 575.094 168.641C574.407 168.174 573.543 167.94 572.501 167.94C571.756 167.94 571.111 168.058 570.566 168.295C570.022 168.526 569.598 168.846 569.297 169.254C569.001 169.656 568.853 170.115 568.853 170.63C568.853 171.062 568.953 171.435 569.154 171.749C569.362 172.062 569.631 172.326 569.962 172.539C570.3 172.746 570.661 172.92 571.045 173.062C571.43 173.199 571.8 173.311 572.155 173.4L573.931 173.862C574.511 174.004 575.106 174.196 575.715 174.439C576.325 174.681 576.89 175.001 577.411 175.397C577.932 175.794 578.352 176.285 578.672 176.871C578.997 177.457 579.16 178.158 579.16 178.975C579.16 180.005 578.893 180.919 578.361 181.718C577.834 182.517 577.068 183.148 576.061 183.609C575.061 184.071 573.851 184.302 572.43 184.302C571.069 184.302 569.891 184.086 568.897 183.654C567.903 183.222 567.124 182.609 566.562 181.816C566 181.017 565.689 180.07 565.63 178.975H568.382C568.435 179.632 568.648 180.18 569.021 180.618C569.4 181.05 569.882 181.372 570.468 181.585C571.06 181.792 571.708 181.896 572.413 181.896C573.188 181.896 573.877 181.775 574.481 181.532C575.091 181.283 575.57 180.94 575.919 180.502C576.269 180.058 576.443 179.54 576.443 178.949C576.443 178.41 576.289 177.969 575.982 177.626C575.68 177.282 575.268 176.998 574.748 176.773C574.233 176.549 573.65 176.35 572.999 176.179L570.85 175.593C569.394 175.196 568.24 174.613 567.388 173.844C566.541 173.074 566.118 172.056 566.118 170.79C566.118 169.742 566.402 168.828 566.971 168.047C567.539 167.265 568.308 166.659 569.279 166.227C570.249 165.789 571.344 165.57 572.564 165.57C573.795 165.57 574.881 165.786 575.822 166.218C576.769 166.65 577.514 167.245 578.059 168.002C578.603 168.754 578.888 169.618 578.911 170.594H576.266Z" fill="#FDFEFE"/>
<path d="M637.78 285.108L641.412 292.467L649.533 293.647L643.656 299.376L645.044 307.463L637.78 303.645L630.517 307.463L631.904 299.376L626.028 293.647L634.149 292.467L637.78 285.108Z" fill="#FDFEFE"/>
<path d="M627.81 330.066L631.442 337.425L639.562 338.604L633.686 344.332L635.073 352.421L627.81 348.601L620.547 352.421L621.934 344.332L616.058 338.604L624.178 337.425L627.81 330.066Z" fill="#FDFEFE"/>
<path d="M611.62 371.204L615.251 378.562L623.372 379.742L617.496 385.47L618.883 393.558L611.62 389.739L604.356 393.558L605.743 385.47L599.867 379.742L607.988 378.562L611.62 371.204Z" fill="#FDFEFE"/>
<path d="M596.168 412.114L599.8 419.473L607.921 420.654L602.044 426.382L603.432 434.469L596.168 430.651L588.905 434.469L590.292 426.382L584.416 420.654L592.537 419.473L596.168 412.114Z" fill="#FDFEFE"/>
<path d="M568.83 445.887L572.462 453.246L580.582 454.426L574.706 460.154L576.093 468.242L568.83 464.423L561.567 468.242L562.954 460.154L557.078 454.426L565.198 453.246L568.83 445.887Z" fill="#FDFEFE"/>
<path d="M281.32 285.779L277.689 293.138L269.568 294.318L275.444 300.047L274.057 308.134L281.32 304.316L288.584 308.134L287.197 300.047L293.073 294.318L284.952 293.138L281.32 285.779Z" fill="#FDFEFE"/>
<path d="M291.291 330.737L287.659 338.096L279.538 339.275L285.415 345.003L284.027 353.092L291.291 349.272L298.555 353.092L297.167 345.003L303.044 339.275L294.922 338.096L291.291 330.737Z" fill="#FDFEFE"/>
<path d="M307.481 371.875L303.849 379.233L295.729 380.413L301.605 386.141L300.218 394.229L307.481 390.41L314.744 394.229L313.357 386.141L319.233 380.413L311.113 379.233L307.481 371.875Z" fill="#FDFEFE"/>
<path d="M322.932 412.785L319.301 420.144L311.18 421.324L317.056 427.053L315.669 435.14L322.932 431.322L330.196 435.14L328.809 427.053L334.685 421.324L326.564 420.144L322.932 412.785Z" fill="#FDFEFE"/>
<path d="M350.271 446.558L346.639 453.917L338.518 455.097L344.395 460.825L343.008 468.913L350.271 465.094L357.534 468.913L356.147 460.825L362.023 455.097L353.902 453.917L350.271 446.558Z" fill="#FDFEFE"/>
</g>
<defs>
<clipPath id="clip0_2_4">
<rect width="932" height="699" fill="white"/>
</clipPath>
</defs>
</svg>
