<svg width="117" height="117" viewBox="0 0 117 117" fill="none" xmlns="http://www.w3.org/2000/svg">
<path d="M58.4343 9.73905C48.8033 9.73905 39.3886 12.595 31.3807 17.9457C23.3728 23.2964 17.1314 30.9016 13.4457 39.7995C9.76011 48.6973 8.79578 58.4883 10.6747 67.9343C12.5536 77.3803 17.1914 86.0569 24.0016 92.8671C30.8117 99.6772 39.4884 104.315 48.9343 106.194C58.3803 108.073 68.1713 107.109 77.0692 103.423C85.9671 99.7373 93.5722 93.4959 98.923 85.488C104.274 77.4801 107.13 68.0653 107.13 58.4343C107.13 52.0396 105.87 45.7074 103.423 39.7995C100.976 33.8915 97.3888 28.5233 92.8671 24.0016C88.3453 19.4798 82.9772 15.8929 77.0692 13.4458C71.1612 10.9986 64.8291 9.73905 58.4343 9.73905ZM77.9124 63.3039H58.4343C57.1428 63.3039 55.9043 62.7908 54.991 61.8776C54.0778 60.9644 53.5648 59.7258 53.5648 58.4343V38.9562C53.5648 37.6647 54.0778 36.4262 54.991 35.5129C55.9043 34.5997 57.1428 34.0867 58.4343 34.0867C59.7258 34.0867 60.9644 34.5997 61.8776 35.5129C62.7908 36.4262 63.3038 37.6647 63.3038 38.9562V53.5648H77.9124C79.2039 53.5648 80.4425 54.0778 81.3557 54.9911C82.2689 55.9043 82.782 57.1428 82.782 58.4343C82.782 59.7258 82.2689 60.9644 81.3557 61.8776C80.4425 62.7908 79.2039 63.3039 77.9124 63.3039Z" fill="#FCB116"/>
</svg>
