<svg width="91" height="91" viewBox="0 0 91 91" fill="none" xmlns="http://www.w3.org/2000/svg">
<path d="M52.7279 13.2946C52.873 13.2938 53.0177 13.3097 53.1592 13.342L70.3354 17.5365C70.7619 17.6396 71.1366 17.8938 71.3902 18.2519C71.6437 18.61 71.759 19.0479 71.7146 19.4845L68.5818 50.7136C68.5381 51.1619 68.3289 51.5779 67.995 51.8803C67.6611 52.1826 67.2265 52.3497 66.776 52.3487H60.3017C59.8432 52.3487 59.4017 52.1753 59.0659 51.8632C58.73 51.5511 58.5247 51.1234 58.4912 50.6662L56.8323 27.9636C56.8216 27.8236 56.7587 27.6927 56.6559 27.597C56.5532 27.5013 56.4182 27.4477 56.2778 27.4469C56.2217 27.4475 56.1659 27.4555 56.1119 27.4706C56.0072 27.5025 55.914 27.5643 55.8441 27.6486C55.7742 27.7328 55.7305 27.8358 55.7185 27.9446L54.1166 50.633C54.0842 51.0911 53.8794 51.5199 53.5434 51.833C53.2074 52.1461 52.7653 52.3202 52.306 52.3203H48.1162C47.6871 52.3207 47.2717 52.1691 46.9437 51.8923C46.6157 51.6155 46.3964 51.2315 46.3247 50.8083L43.1302 32.1344C43.1099 32.0029 43.0434 31.883 42.9426 31.7961C42.8419 31.7092 42.7134 31.6611 42.5804 31.6604C42.5244 31.6617 42.4687 31.6696 42.4145 31.6841H42.3861C42.2738 31.7234 42.177 31.7974 42.1097 31.8954C42.0424 31.9934 42.008 32.1103 42.0117 32.2292L42.2392 50.4718C42.2429 50.7124 42.1987 50.9513 42.1092 51.1745C42.0196 51.3978 41.8864 51.601 41.7174 51.7722C41.5484 51.9434 41.3469 52.0792 41.1249 52.1717C40.9028 52.2642 40.6645 52.3115 40.4239 52.3108H36.6986C36.2862 52.3098 35.8865 52.1685 35.5652 51.9101C35.2438 51.6516 35.0201 51.2915 34.9307 50.8889L31.3476 35.7223C31.3112 35.6077 31.2392 35.5077 31.142 35.4369C31.0448 35.3661 30.9275 35.3283 30.8073 35.3289C30.7508 35.3295 30.6948 35.3391 30.6414 35.3573H30.6035C30.4833 35.3952 30.3792 35.4723 30.3079 35.5762C30.2366 35.6802 30.2022 35.805 30.2101 35.9308L31.2101 50.3771C31.2285 50.6272 31.1948 50.8784 31.1112 51.1148C31.0277 51.3512 30.896 51.5678 30.7246 51.7508C30.5531 51.9338 30.3456 52.0793 30.1151 52.1782C29.8846 52.277 29.6362 52.327 29.3854 52.325H26.0677C25.6539 52.3253 25.2524 52.1847 24.9293 51.9262C24.6062 51.6677 24.3809 51.3069 24.2904 50.9031L19.7925 30.2149C19.7051 29.8135 19.7564 29.3943 19.938 29.0258C20.1197 28.6574 20.4209 28.3614 20.7925 28.1863L51.9553 13.4652C52.1972 13.3523 52.4609 13.2941 52.7279 13.2946ZM47.1351 67.0225H47.2299L66.1361 67.9941C66.3825 68.0069 66.6236 68.0697 66.8448 68.1788C67.066 68.2879 67.2627 68.4409 67.4228 68.6285C67.5829 68.8161 67.7031 69.0344 67.7761 69.27C67.849 69.5056 67.8732 69.7537 67.8471 69.9989L67.2073 76.094C67.1617 76.5408 66.9525 76.9549 66.6201 77.2567C66.2876 77.5585 65.8553 77.7268 65.4062 77.7292C65.2579 77.7279 65.11 77.7105 64.9655 77.677L47.7939 73.4114C47.5112 73.3403 47.2497 73.2025 47.0311 73.0096C46.8126 72.8166 46.6435 72.5741 46.538 72.3024L45.4526 69.5013C45.3456 69.2265 45.3071 68.9297 45.3405 68.6367C45.3739 68.3438 45.4782 68.0633 45.6444 67.8197C45.8105 67.576 46.0336 67.3766 46.2941 67.2385C46.5547 67.1004 46.845 67.0279 47.1399 67.0272M52.7326 7.6118C51.6252 7.61355 50.5316 7.85783 49.5286 8.32747L18.3611 23.0439C16.8198 23.7603 15.5692 24.9814 14.816 26.505C14.0628 28.0287 13.8521 29.7638 14.2187 31.4235L18.7119 52.1023C19.0828 53.7772 20.0138 55.2756 21.3511 56.3501C22.6884 57.4246 24.3522 58.0111 26.0677 58.0125H29.3854C30.6597 58.0116 31.9126 57.6853 33.0254 57.0646C34.1458 57.6878 35.407 58.0142 36.6891 58.0125H40.4144C41.7675 58.0176 43.0964 57.6538 44.2582 56.9603C45.4225 57.6522 46.7524 58.0158 48.1068 58.0125H52.2966C53.7138 58.0204 55.1043 57.626 56.3062 56.875C57.501 57.6332 58.8867 58.0359 60.3017 58.0362H66.776C68.6376 58.0414 70.4343 57.3522 71.8148 56.1032C73.1953 54.8542 74.0603 53.1352 74.2408 51.2823L77.3737 20.0579C77.5511 18.2558 77.0741 16.45 76.0298 14.9706C74.9855 13.4912 73.4437 12.437 71.6862 12.0006L54.5052 7.8156C53.9244 7.67745 53.3296 7.60747 52.7326 7.60706V7.6118ZM47.1351 61.335C45.914 61.3346 44.7112 61.6323 43.6312 62.2022C42.5511 62.7721 41.6266 63.597 40.9377 64.6054C40.2488 65.6137 39.8165 66.7749 39.6782 67.9882C39.5399 69.2015 39.6999 70.4303 40.1443 71.5677L41.2344 74.3736C41.6704 75.4937 42.3689 76.4928 43.2712 77.287C44.1734 78.0812 45.2531 78.6473 46.4195 78.9378L63.591 83.2034C64.632 83.4629 65.7167 83.496 66.7716 83.3003C67.8265 83.1047 68.8272 82.685 69.706 82.0694C70.5848 81.4539 71.3213 80.657 71.8657 79.7324C72.4101 78.8079 72.7497 77.7772 72.8616 76.7102L73.5014 70.6198C73.6084 69.6065 73.5077 68.5819 73.2054 67.6088C72.9032 66.6357 72.4057 65.7344 71.7435 64.9599C71.0813 64.1855 70.2681 63.5541 69.3538 63.1045C68.4394 62.6548 67.4429 62.3962 66.4252 62.3445L47.5238 61.3681H47.1351V61.335Z" fill="black"/>
</svg>
