<svg width="86" height="70" viewBox="0 0 86 70" fill="none" xmlns="http://www.w3.org/2000/svg">
<path d="M75.7549 4H9.97958C8.3937 4 6.87277 4.72579 5.75138 6.01771C4.62999 7.30963 4 9.06184 4 10.8889V59.1111C4 60.9382 4.62999 62.6904 5.75138 63.9823C6.87277 65.2742 8.3937 66 9.97958 66H75.7549C77.3408 66 78.8618 65.2742 79.9831 63.9823C81.1045 62.6904 81.7345 60.9382 81.7345 59.1111V10.8889C81.7345 9.06184 81.1045 7.30963 79.9831 6.01771C78.8618 4.72579 77.3408 4 75.7549 4Z" stroke="black" stroke-width="7.8" stroke-linecap="round" stroke-linejoin="round"/>
<path d="M15.9592 24.6669L24.9286 47.0558L33.898 24.6669M44.3622 24.6669V47.0558M56.3214 39.3919H60.7463C62.6926 39.3919 64.5642 38.4446 65.8917 36.8085C66.9857 35.464 67.6463 33.7279 67.7633 31.8899C67.8803 30.052 67.4466 28.2234 66.5345 26.7094C66.1503 26.0789 65.64 25.5642 65.0468 25.2087C64.4536 24.8532 63.7948 24.6674 63.1262 24.6669H56.3214V39.3919ZM56.3214 39.3919V47.0558" stroke="black" stroke-width="5.5" stroke-linecap="round" stroke-linejoin="round"/>
</svg>
